<svg xmlns="http://www.w3.org/2000/svg" width="110" height="36" fill="none"><path fill="url(#a)" fill-rule="evenodd" stroke="#F2F2F2" stroke-linecap="round" stroke-linejoin="round" stroke-miterlimit="1.5" stroke-width="1.46" d="M1 9.514v17.028l14.792 8.513 14.792-8.513V9.514L15.792 1z" clip-rule="evenodd"/><path stroke="#F2F2F2" stroke-linecap="round" stroke-linejoin="round" stroke-miterlimit="1.5" stroke-width="1.46" d="M15.792 18.028 1 9.514M15.792 35.055V18.028M15.792 18.028l14.792-8.514"/><path fill="#fff" d="M48.164 13.388v11.2h5.6v1.36h-7.16v-12.56zm14.216 12.8q-1.5 0-2.73-.78t-1.96-2.21-.73-3.39q0-1.63.47-2.87t1.29-2.08a5.4 5.4 0 0 1 1.88-1.26 6 6 0 0 1 2.26-.43q1.47 0 2.58.61 1.11.6 1.9 1.91l-1.48.52q-.67-.83-1.44-1.22a3.4 3.4 0 0 0-1.62-.4q-1.13 0-2.08.63t-1.53 1.8q-.57 1.17-.57 2.79 0 1.44.47 2.56.47 1.11 1.33 1.75.87.63 2.06.63.91 0 1.63-.42.73-.42 1.15-1.26.42-.85.42-2.14h.48q0 1.6-.38 2.78t-1.22 1.83q-.83.65-2.18.65m3.58-.24-.28-2.96v-2.1l-3.16-.1v-1.06h4.68v6.22zm10.89.24q-1.26 0-2.31-.45a4 4 0 0 1-1.69-1.35q-.639-.89-.66-2.2h1.52q0 .88.43 1.45.431.561 1.14.84.71.27 1.55.27.912 0 1.58-.29.671-.29 1.03-.76.371-.48.37-1.05 0-.8-.49-1.29-.49-.5-1.45-.81l-2.22-.78q-1.56-.56-2.36-1.28t-.8-2.02q0-1.46 1.12-2.38 1.13-.92 3.2-.92 1.92 0 3 .89 1.08.88 1.24 2.37h-1.54q-.15-.87-.82-1.35-.66-.49-1.88-.49-1.24 0-1.93.55t-.69 1.39q0 .69.43 1.1.44.4 1.37.72l2.6.9q1.35.45 2.13 1.26.791.81.79 2.1 0 1-.54 1.81-.529.81-1.57 1.29t-2.55.48m7.703-12.8h1.88l3.6 6.1h-.4l3.66-6.1h1.86l-4.54 7.4v5.16h-1.58v-5.16zm18.27 12.8q-1.26 0-2.31-.45a4 4 0 0 1-1.69-1.35q-.639-.89-.66-2.2h1.52q0 .88.43 1.45.43.561 1.14.84.71.27 1.55.27.91 0 1.58-.29t1.03-.76q.37-.48.37-1.05 0-.8-.49-1.29-.49-.5-1.45-.81l-2.22-.78q-1.56-.56-2.36-1.28t-.8-2.02q0-1.46 1.12-2.38 1.13-.92 3.2-.92 1.92 0 3 .89 1.08.88 1.24 2.37h-1.54q-.15-.87-.82-1.35-.66-.49-1.88-.49-1.24 0-1.93.55t-.69 1.39q0 .69.43 1.1.44.4 1.37.72l2.6.9q1.35.45 2.13 1.26.79.81.79 2.1 0 1-.54 1.81-.53.81-1.57 1.29t-2.55.48"/><defs><linearGradient id="a" x1="8.396" x2="23.119" y1="5.257" y2="30.838" gradientUnits="userSpaceOnUse"><stop stop-color="#AFEADC"/><stop offset="1" stop-color="#FCAEBB"/></linearGradient></defs></svg>