<svg xmlns="http://www.w3.org/2000/svg" width="108" height="36" fill="none"><path fill="url(#a)" fill-rule="evenodd" stroke="#F2F2F2" stroke-linecap="round" stroke-linejoin="round" stroke-miterlimit="1.5" stroke-width="1.46" d="M1 9.514v17.028l14.792 8.513 14.792-8.513V9.514L15.792 1z" clip-rule="evenodd"/><path stroke="#F2F2F2" stroke-linecap="round" stroke-linejoin="round" stroke-miterlimit="1.5" stroke-width="1.46" d="M15.792 18.028 1 9.514M15.792 35.055V18.028M15.792 18.028l14.792-8.514"/><path fill="#fff" d="M48.164 13.388v11.2h5.6v1.36h-7.16v-12.56zm8.296 12.56 4.32-12.56h1.9l4.22 12.56h-1.64l-1.06-3.22h-5l-1.1 3.22zm3.14-4.44h4.2l-2.1-6.22zm15.864 4.68q-1.26 0-2.31-.45a4.03 4.03 0 0 1-1.69-1.35q-.64-.89-.66-2.2h1.52q0 .88.43 1.45a2.6 2.6 0 0 0 1.14.84q.71.27 1.55.27.91 0 1.58-.29t1.03-.76q.37-.48.37-1.05 0-.8-.49-1.29-.49-.5-1.45-.81l-2.22-.78q-1.56-.56-2.36-1.28t-.8-2.02q0-1.46 1.12-2.38 1.13-.92 3.2-.92 1.92 0 3 .89 1.08.88 1.24 2.37h-1.54q-.15-.87-.82-1.35-.66-.49-1.88-.49-1.24 0-1.93.55t-.69 1.39q0 .69.43 1.1.44.4 1.37.72l2.6.9q1.35.45 2.13 1.26.79.81.79 2.1 0 1-.54 1.81-.53.81-1.57 1.29t-2.55.48m7.703-12.8h1.88l3.6 6.1h-.4l3.66-6.1h1.86l-4.54 7.4v5.16h-1.58v-5.16zm18.27 12.8q-1.26 0-2.31-.45a4.03 4.03 0 0 1-1.69-1.35q-.64-.89-.66-2.2h1.52q0 .88.43 1.45a2.6 2.6 0 0 0 1.14.84q.71.27 1.55.27.91 0 1.58-.29t1.03-.76q.37-.48.37-1.05 0-.8-.49-1.29-.49-.5-1.45-.81l-2.22-.78q-1.56-.56-2.36-1.28t-.8-2.02q0-1.46 1.12-2.38 1.13-.92 3.2-.92 1.92 0 3 .89 1.08.88 1.24 2.37h-1.54q-.15-.87-.82-1.35-.66-.49-1.88-.49-1.24 0-1.93.55t-.69 1.39q0 .69.43 1.1.44.4 1.37.72l2.6.9q1.35.45 2.13 1.26.79.81.79 2.1 0 1-.54 1.81-.53.81-1.57 1.29t-2.55.48"/><defs><linearGradient id="a" x1="8.396" x2="23.119" y1="5.257" y2="30.838" gradientUnits="userSpaceOnUse"><stop stop-color="#AFEADC"/><stop offset="1" stop-color="#FCAEBB"/></linearGradient></defs></svg>